<mxfile host="app.diagrams.net" modified="2024-06-10T14:54:09.571Z" agent="Mozilla/5.0 (Macintosh; Intel Mac OS X 10_15_7) AppleWebKit/537.36 (KHTML, like Gecko) Chrome/125.0.0.0 Safari/537.36" etag="ZW7EdOiPBXofsMRY0S-3" version="24.4.6" type="device">
  <diagram name="Page-1" id="yH99QrnX09RR625YZC_1">
    <mxGraphModel dx="1570" dy="740" grid="1" gridSize="10" guides="1" tooltips="1" connect="1" arrows="1" fold="1" page="1" pageScale="1" pageWidth="850" pageHeight="1100" math="0" shadow="0">
      <root>
        <mxCell id="0" />
        <mxCell id="1" parent="0" />
        <mxCell id="t48mmcYGpMNjEHupCj1k-149" value="" style="group" vertex="1" connectable="0" parent="1">
          <mxGeometry x="480" y="210" width="225" height="160" as="geometry" />
        </mxCell>
        <mxCell id="t48mmcYGpMNjEHupCj1k-25" value="" style="shape=table;startSize=0;container=1;collapsible=0;childLayout=tableLayout;" vertex="1" parent="t48mmcYGpMNjEHupCj1k-149">
          <mxGeometry y="20" width="225" height="140" as="geometry" />
        </mxCell>
        <mxCell id="t48mmcYGpMNjEHupCj1k-26" value="" style="shape=tableRow;horizontal=0;startSize=0;swimlaneHead=0;swimlaneBody=0;strokeColor=inherit;top=0;left=0;bottom=0;right=0;collapsible=0;dropTarget=0;fillColor=none;points=[[0,0.5],[1,0.5]];portConstraint=eastwest;" vertex="1" parent="t48mmcYGpMNjEHupCj1k-25">
          <mxGeometry width="225" height="23" as="geometry" />
        </mxCell>
        <mxCell id="t48mmcYGpMNjEHupCj1k-70" value="id" style="shape=partialRectangle;html=1;whiteSpace=wrap;connectable=0;strokeColor=inherit;overflow=hidden;fillColor=none;top=0;left=0;bottom=0;right=0;pointerEvents=1;" vertex="1" parent="t48mmcYGpMNjEHupCj1k-26">
          <mxGeometry width="70" height="23" as="geometry">
            <mxRectangle width="70" height="23" as="alternateBounds" />
          </mxGeometry>
        </mxCell>
        <mxCell id="t48mmcYGpMNjEHupCj1k-27" value="Int" style="shape=partialRectangle;html=1;whiteSpace=wrap;connectable=0;strokeColor=inherit;overflow=hidden;fillColor=none;top=0;left=0;bottom=0;right=0;pointerEvents=1;" vertex="1" parent="t48mmcYGpMNjEHupCj1k-26">
          <mxGeometry x="70" width="80" height="23" as="geometry">
            <mxRectangle width="80" height="23" as="alternateBounds" />
          </mxGeometry>
        </mxCell>
        <mxCell id="t48mmcYGpMNjEHupCj1k-28" value="" style="shape=partialRectangle;html=1;whiteSpace=wrap;connectable=0;strokeColor=inherit;overflow=hidden;fillColor=none;top=0;left=0;bottom=0;right=0;pointerEvents=1;" vertex="1" parent="t48mmcYGpMNjEHupCj1k-26">
          <mxGeometry x="150" width="75" height="23" as="geometry">
            <mxRectangle width="75" height="23" as="alternateBounds" />
          </mxGeometry>
        </mxCell>
        <mxCell id="t48mmcYGpMNjEHupCj1k-29" value="" style="shape=tableRow;horizontal=0;startSize=0;swimlaneHead=0;swimlaneBody=0;strokeColor=inherit;top=0;left=0;bottom=0;right=0;collapsible=0;dropTarget=0;fillColor=none;points=[[0,0.5],[1,0.5]];portConstraint=eastwest;" vertex="1" parent="t48mmcYGpMNjEHupCj1k-25">
          <mxGeometry y="23" width="225" height="24" as="geometry" />
        </mxCell>
        <mxCell id="t48mmcYGpMNjEHupCj1k-71" value="hospital_id" style="shape=partialRectangle;html=1;whiteSpace=wrap;connectable=0;strokeColor=inherit;overflow=hidden;fillColor=none;top=0;left=0;bottom=0;right=0;pointerEvents=1;" vertex="1" parent="t48mmcYGpMNjEHupCj1k-29">
          <mxGeometry width="70" height="24" as="geometry">
            <mxRectangle width="70" height="24" as="alternateBounds" />
          </mxGeometry>
        </mxCell>
        <mxCell id="t48mmcYGpMNjEHupCj1k-30" value="Int" style="shape=partialRectangle;html=1;whiteSpace=wrap;connectable=0;strokeColor=inherit;overflow=hidden;fillColor=none;top=0;left=0;bottom=0;right=0;pointerEvents=1;" vertex="1" parent="t48mmcYGpMNjEHupCj1k-29">
          <mxGeometry x="70" width="80" height="24" as="geometry">
            <mxRectangle width="80" height="24" as="alternateBounds" />
          </mxGeometry>
        </mxCell>
        <mxCell id="t48mmcYGpMNjEHupCj1k-31" value="" style="shape=partialRectangle;html=1;whiteSpace=wrap;connectable=0;strokeColor=inherit;overflow=hidden;fillColor=none;top=0;left=0;bottom=0;right=0;pointerEvents=1;" vertex="1" parent="t48mmcYGpMNjEHupCj1k-29">
          <mxGeometry x="150" width="75" height="24" as="geometry">
            <mxRectangle width="75" height="24" as="alternateBounds" />
          </mxGeometry>
        </mxCell>
        <mxCell id="t48mmcYGpMNjEHupCj1k-32" value="" style="shape=tableRow;horizontal=0;startSize=0;swimlaneHead=0;swimlaneBody=0;strokeColor=inherit;top=0;left=0;bottom=0;right=0;collapsible=0;dropTarget=0;fillColor=none;points=[[0,0.5],[1,0.5]];portConstraint=eastwest;" vertex="1" parent="t48mmcYGpMNjEHupCj1k-25">
          <mxGeometry y="47" width="225" height="23" as="geometry" />
        </mxCell>
        <mxCell id="t48mmcYGpMNjEHupCj1k-72" value="surgeryId" style="shape=partialRectangle;html=1;whiteSpace=wrap;connectable=0;strokeColor=inherit;overflow=hidden;fillColor=none;top=0;left=0;bottom=0;right=0;pointerEvents=1;" vertex="1" parent="t48mmcYGpMNjEHupCj1k-32">
          <mxGeometry width="70" height="23" as="geometry">
            <mxRectangle width="70" height="23" as="alternateBounds" />
          </mxGeometry>
        </mxCell>
        <mxCell id="t48mmcYGpMNjEHupCj1k-33" value="Int Array" style="shape=partialRectangle;html=1;whiteSpace=wrap;connectable=0;strokeColor=inherit;overflow=hidden;fillColor=none;top=0;left=0;bottom=0;right=0;pointerEvents=1;" vertex="1" parent="t48mmcYGpMNjEHupCj1k-32">
          <mxGeometry x="70" width="80" height="23" as="geometry">
            <mxRectangle width="80" height="23" as="alternateBounds" />
          </mxGeometry>
        </mxCell>
        <mxCell id="t48mmcYGpMNjEHupCj1k-34" value="" style="shape=partialRectangle;html=1;whiteSpace=wrap;connectable=0;strokeColor=inherit;overflow=hidden;fillColor=none;top=0;left=0;bottom=0;right=0;pointerEvents=1;" vertex="1" parent="t48mmcYGpMNjEHupCj1k-32">
          <mxGeometry x="150" width="75" height="23" as="geometry">
            <mxRectangle width="75" height="23" as="alternateBounds" />
          </mxGeometry>
        </mxCell>
        <mxCell id="t48mmcYGpMNjEHupCj1k-35" value="" style="shape=tableRow;horizontal=0;startSize=0;swimlaneHead=0;swimlaneBody=0;strokeColor=inherit;top=0;left=0;bottom=0;right=0;collapsible=0;dropTarget=0;fillColor=none;points=[[0,0.5],[1,0.5]];portConstraint=eastwest;" vertex="1" parent="t48mmcYGpMNjEHupCj1k-25">
          <mxGeometry y="70" width="225" height="23" as="geometry" />
        </mxCell>
        <mxCell id="t48mmcYGpMNjEHupCj1k-73" value="reviewImg" style="shape=partialRectangle;html=1;whiteSpace=wrap;connectable=0;strokeColor=inherit;overflow=hidden;fillColor=none;top=0;left=0;bottom=0;right=0;pointerEvents=1;" vertex="1" parent="t48mmcYGpMNjEHupCj1k-35">
          <mxGeometry width="70" height="23" as="geometry">
            <mxRectangle width="70" height="23" as="alternateBounds" />
          </mxGeometry>
        </mxCell>
        <mxCell id="t48mmcYGpMNjEHupCj1k-36" value="String" style="shape=partialRectangle;html=1;whiteSpace=wrap;connectable=0;strokeColor=inherit;overflow=hidden;fillColor=none;top=0;left=0;bottom=0;right=0;pointerEvents=1;" vertex="1" parent="t48mmcYGpMNjEHupCj1k-35">
          <mxGeometry x="70" width="80" height="23" as="geometry">
            <mxRectangle width="80" height="23" as="alternateBounds" />
          </mxGeometry>
        </mxCell>
        <mxCell id="t48mmcYGpMNjEHupCj1k-37" value="" style="shape=partialRectangle;html=1;whiteSpace=wrap;connectable=0;strokeColor=inherit;overflow=hidden;fillColor=none;top=0;left=0;bottom=0;right=0;pointerEvents=1;" vertex="1" parent="t48mmcYGpMNjEHupCj1k-35">
          <mxGeometry x="150" width="75" height="23" as="geometry">
            <mxRectangle width="75" height="23" as="alternateBounds" />
          </mxGeometry>
        </mxCell>
        <mxCell id="t48mmcYGpMNjEHupCj1k-38" value="" style="shape=tableRow;horizontal=0;startSize=0;swimlaneHead=0;swimlaneBody=0;strokeColor=inherit;top=0;left=0;bottom=0;right=0;collapsible=0;dropTarget=0;fillColor=none;points=[[0,0.5],[1,0.5]];portConstraint=eastwest;" vertex="1" parent="t48mmcYGpMNjEHupCj1k-25">
          <mxGeometry y="93" width="225" height="24" as="geometry" />
        </mxCell>
        <mxCell id="t48mmcYGpMNjEHupCj1k-74" value="userId" style="shape=partialRectangle;html=1;whiteSpace=wrap;connectable=0;strokeColor=inherit;overflow=hidden;fillColor=none;top=0;left=0;bottom=0;right=0;pointerEvents=1;" vertex="1" parent="t48mmcYGpMNjEHupCj1k-38">
          <mxGeometry width="70" height="24" as="geometry">
            <mxRectangle width="70" height="24" as="alternateBounds" />
          </mxGeometry>
        </mxCell>
        <mxCell id="t48mmcYGpMNjEHupCj1k-39" value="String" style="shape=partialRectangle;html=1;whiteSpace=wrap;connectable=0;strokeColor=inherit;overflow=hidden;fillColor=none;top=0;left=0;bottom=0;right=0;pointerEvents=1;" vertex="1" parent="t48mmcYGpMNjEHupCj1k-38">
          <mxGeometry x="70" width="80" height="24" as="geometry">
            <mxRectangle width="80" height="24" as="alternateBounds" />
          </mxGeometry>
        </mxCell>
        <mxCell id="t48mmcYGpMNjEHupCj1k-40" value="" style="shape=partialRectangle;html=1;whiteSpace=wrap;connectable=0;strokeColor=inherit;overflow=hidden;fillColor=none;top=0;left=0;bottom=0;right=0;pointerEvents=1;" vertex="1" parent="t48mmcYGpMNjEHupCj1k-38">
          <mxGeometry x="150" width="75" height="24" as="geometry">
            <mxRectangle width="75" height="24" as="alternateBounds" />
          </mxGeometry>
        </mxCell>
        <mxCell id="t48mmcYGpMNjEHupCj1k-41" value="" style="shape=tableRow;horizontal=0;startSize=0;swimlaneHead=0;swimlaneBody=0;strokeColor=inherit;top=0;left=0;bottom=0;right=0;collapsible=0;dropTarget=0;fillColor=none;points=[[0,0.5],[1,0.5]];portConstraint=eastwest;" vertex="1" parent="t48mmcYGpMNjEHupCj1k-25">
          <mxGeometry y="117" width="225" height="23" as="geometry" />
        </mxCell>
        <mxCell id="t48mmcYGpMNjEHupCj1k-75" value="&lt;meta charset=&quot;utf-8&quot;&gt;&lt;span style=&quot;color: rgb(0, 0, 0); font-family: Helvetica; font-size: 12px; font-style: normal; font-variant-ligatures: normal; font-variant-caps: normal; font-weight: 400; letter-spacing: normal; orphans: 2; text-align: center; text-indent: 0px; text-transform: none; widows: 2; word-spacing: 0px; -webkit-text-stroke-width: 0px; white-space: normal; background-color: rgb(251, 251, 251); text-decoration-thickness: initial; text-decoration-style: initial; text-decoration-color: initial; display: inline !important; float: none;&quot;&gt;reviewDesc&lt;/span&gt;" style="shape=partialRectangle;html=1;whiteSpace=wrap;connectable=0;strokeColor=inherit;overflow=hidden;fillColor=none;top=0;left=0;bottom=0;right=0;pointerEvents=1;" vertex="1" parent="t48mmcYGpMNjEHupCj1k-41">
          <mxGeometry width="70" height="23" as="geometry">
            <mxRectangle width="70" height="23" as="alternateBounds" />
          </mxGeometry>
        </mxCell>
        <mxCell id="t48mmcYGpMNjEHupCj1k-42" value="String" style="shape=partialRectangle;html=1;whiteSpace=wrap;connectable=0;strokeColor=inherit;overflow=hidden;fillColor=none;top=0;left=0;bottom=0;right=0;pointerEvents=1;" vertex="1" parent="t48mmcYGpMNjEHupCj1k-41">
          <mxGeometry x="70" width="80" height="23" as="geometry">
            <mxRectangle width="80" height="23" as="alternateBounds" />
          </mxGeometry>
        </mxCell>
        <mxCell id="t48mmcYGpMNjEHupCj1k-43" value="" style="shape=partialRectangle;html=1;whiteSpace=wrap;connectable=0;strokeColor=inherit;overflow=hidden;fillColor=none;top=0;left=0;bottom=0;right=0;pointerEvents=1;" vertex="1" parent="t48mmcYGpMNjEHupCj1k-41">
          <mxGeometry x="150" width="75" height="23" as="geometry">
            <mxRectangle width="75" height="23" as="alternateBounds" />
          </mxGeometry>
        </mxCell>
        <mxCell id="t48mmcYGpMNjEHupCj1k-148" value="reviews" style="whiteSpace=wrap;html=1;" vertex="1" parent="t48mmcYGpMNjEHupCj1k-149">
          <mxGeometry x="62.5" width="100" height="20" as="geometry" />
        </mxCell>
        <mxCell id="t48mmcYGpMNjEHupCj1k-219" value="" style="group" vertex="1" connectable="0" parent="1">
          <mxGeometry x="400" y="320" width="270" height="340" as="geometry" />
        </mxCell>
        <mxCell id="t48mmcYGpMNjEHupCj1k-99" value="" style="shape=table;startSize=0;container=1;collapsible=0;childLayout=tableLayout;" vertex="1" parent="t48mmcYGpMNjEHupCj1k-219">
          <mxGeometry x="-330" y="-50" width="230" height="320" as="geometry" />
        </mxCell>
        <mxCell id="t48mmcYGpMNjEHupCj1k-100" value="" style="shape=tableRow;horizontal=0;startSize=0;swimlaneHead=0;swimlaneBody=0;strokeColor=inherit;top=0;left=0;bottom=0;right=0;collapsible=0;dropTarget=0;fillColor=none;points=[[0,0.5],[1,0.5]];portConstraint=eastwest;" vertex="1" parent="t48mmcYGpMNjEHupCj1k-99">
          <mxGeometry width="230" height="27" as="geometry" />
        </mxCell>
        <mxCell id="t48mmcYGpMNjEHupCj1k-101" value="id" style="shape=partialRectangle;html=1;whiteSpace=wrap;connectable=0;strokeColor=inherit;overflow=hidden;fillColor=none;top=0;left=0;bottom=0;right=0;pointerEvents=1;" vertex="1" parent="t48mmcYGpMNjEHupCj1k-100">
          <mxGeometry width="76" height="27" as="geometry">
            <mxRectangle width="76" height="27" as="alternateBounds" />
          </mxGeometry>
        </mxCell>
        <mxCell id="t48mmcYGpMNjEHupCj1k-102" value="Int" style="shape=partialRectangle;html=1;whiteSpace=wrap;connectable=0;strokeColor=inherit;overflow=hidden;fillColor=none;top=0;left=0;bottom=0;right=0;pointerEvents=1;" vertex="1" parent="t48mmcYGpMNjEHupCj1k-100">
          <mxGeometry x="76" width="78" height="27" as="geometry">
            <mxRectangle width="78" height="27" as="alternateBounds" />
          </mxGeometry>
        </mxCell>
        <mxCell id="t48mmcYGpMNjEHupCj1k-103" value="" style="shape=partialRectangle;html=1;whiteSpace=wrap;connectable=0;strokeColor=inherit;overflow=hidden;fillColor=none;top=0;left=0;bottom=0;right=0;pointerEvents=1;" vertex="1" parent="t48mmcYGpMNjEHupCj1k-100">
          <mxGeometry x="154" width="76" height="27" as="geometry">
            <mxRectangle width="76" height="27" as="alternateBounds" />
          </mxGeometry>
        </mxCell>
        <mxCell id="t48mmcYGpMNjEHupCj1k-104" value="" style="shape=tableRow;horizontal=0;startSize=0;swimlaneHead=0;swimlaneBody=0;strokeColor=inherit;top=0;left=0;bottom=0;right=0;collapsible=0;dropTarget=0;fillColor=none;points=[[0,0.5],[1,0.5]];portConstraint=eastwest;" vertex="1" parent="t48mmcYGpMNjEHupCj1k-99">
          <mxGeometry y="27" width="230" height="26" as="geometry" />
        </mxCell>
        <mxCell id="t48mmcYGpMNjEHupCj1k-105" value="tel" style="shape=partialRectangle;html=1;whiteSpace=wrap;connectable=0;strokeColor=inherit;overflow=hidden;fillColor=none;top=0;left=0;bottom=0;right=0;pointerEvents=1;" vertex="1" parent="t48mmcYGpMNjEHupCj1k-104">
          <mxGeometry width="76" height="26" as="geometry">
            <mxRectangle width="76" height="26" as="alternateBounds" />
          </mxGeometry>
        </mxCell>
        <mxCell id="t48mmcYGpMNjEHupCj1k-106" value="String" style="shape=partialRectangle;html=1;whiteSpace=wrap;connectable=0;strokeColor=inherit;overflow=hidden;fillColor=none;top=0;left=0;bottom=0;right=0;pointerEvents=1;" vertex="1" parent="t48mmcYGpMNjEHupCj1k-104">
          <mxGeometry x="76" width="78" height="26" as="geometry">
            <mxRectangle width="78" height="26" as="alternateBounds" />
          </mxGeometry>
        </mxCell>
        <mxCell id="t48mmcYGpMNjEHupCj1k-107" value="" style="shape=partialRectangle;html=1;whiteSpace=wrap;connectable=0;strokeColor=inherit;overflow=hidden;fillColor=none;top=0;left=0;bottom=0;right=0;pointerEvents=1;" vertex="1" parent="t48mmcYGpMNjEHupCj1k-104">
          <mxGeometry x="154" width="76" height="26" as="geometry">
            <mxRectangle width="76" height="26" as="alternateBounds" />
          </mxGeometry>
        </mxCell>
        <mxCell id="t48mmcYGpMNjEHupCj1k-108" value="" style="shape=tableRow;horizontal=0;startSize=0;swimlaneHead=0;swimlaneBody=0;strokeColor=inherit;top=0;left=0;bottom=0;right=0;collapsible=0;dropTarget=0;fillColor=none;points=[[0,0.5],[1,0.5]];portConstraint=eastwest;" vertex="1" parent="t48mmcYGpMNjEHupCj1k-99">
          <mxGeometry y="53" width="230" height="27" as="geometry" />
        </mxCell>
        <mxCell id="t48mmcYGpMNjEHupCj1k-109" value="kakaotalk" style="shape=partialRectangle;html=1;whiteSpace=wrap;connectable=0;strokeColor=inherit;overflow=hidden;fillColor=none;top=0;left=0;bottom=0;right=0;pointerEvents=1;" vertex="1" parent="t48mmcYGpMNjEHupCj1k-108">
          <mxGeometry width="76" height="27" as="geometry">
            <mxRectangle width="76" height="27" as="alternateBounds" />
          </mxGeometry>
        </mxCell>
        <mxCell id="t48mmcYGpMNjEHupCj1k-110" value="String" style="shape=partialRectangle;html=1;whiteSpace=wrap;connectable=0;strokeColor=inherit;overflow=hidden;fillColor=none;top=0;left=0;bottom=0;right=0;pointerEvents=1;" vertex="1" parent="t48mmcYGpMNjEHupCj1k-108">
          <mxGeometry x="76" width="78" height="27" as="geometry">
            <mxRectangle width="78" height="27" as="alternateBounds" />
          </mxGeometry>
        </mxCell>
        <mxCell id="t48mmcYGpMNjEHupCj1k-111" value="" style="shape=partialRectangle;html=1;whiteSpace=wrap;connectable=0;strokeColor=inherit;overflow=hidden;fillColor=none;top=0;left=0;bottom=0;right=0;pointerEvents=1;" vertex="1" parent="t48mmcYGpMNjEHupCj1k-108">
          <mxGeometry x="154" width="76" height="27" as="geometry">
            <mxRectangle width="76" height="27" as="alternateBounds" />
          </mxGeometry>
        </mxCell>
        <mxCell id="t48mmcYGpMNjEHupCj1k-112" value="" style="shape=tableRow;horizontal=0;startSize=0;swimlaneHead=0;swimlaneBody=0;strokeColor=inherit;top=0;left=0;bottom=0;right=0;collapsible=0;dropTarget=0;fillColor=none;points=[[0,0.5],[1,0.5]];portConstraint=eastwest;" vertex="1" parent="t48mmcYGpMNjEHupCj1k-99">
          <mxGeometry y="80" width="230" height="27" as="geometry" />
        </mxCell>
        <mxCell id="t48mmcYGpMNjEHupCj1k-113" value="homepage" style="shape=partialRectangle;html=1;whiteSpace=wrap;connectable=0;strokeColor=inherit;overflow=hidden;fillColor=none;top=0;left=0;bottom=0;right=0;pointerEvents=1;" vertex="1" parent="t48mmcYGpMNjEHupCj1k-112">
          <mxGeometry width="76" height="27" as="geometry">
            <mxRectangle width="76" height="27" as="alternateBounds" />
          </mxGeometry>
        </mxCell>
        <mxCell id="t48mmcYGpMNjEHupCj1k-114" value="String" style="shape=partialRectangle;html=1;whiteSpace=wrap;connectable=0;strokeColor=inherit;overflow=hidden;fillColor=none;top=0;left=0;bottom=0;right=0;pointerEvents=1;" vertex="1" parent="t48mmcYGpMNjEHupCj1k-112">
          <mxGeometry x="76" width="78" height="27" as="geometry">
            <mxRectangle width="78" height="27" as="alternateBounds" />
          </mxGeometry>
        </mxCell>
        <mxCell id="t48mmcYGpMNjEHupCj1k-115" value="" style="shape=partialRectangle;html=1;whiteSpace=wrap;connectable=0;strokeColor=inherit;overflow=hidden;fillColor=none;top=0;left=0;bottom=0;right=0;pointerEvents=1;" vertex="1" parent="t48mmcYGpMNjEHupCj1k-112">
          <mxGeometry x="154" width="76" height="27" as="geometry">
            <mxRectangle width="76" height="27" as="alternateBounds" />
          </mxGeometry>
        </mxCell>
        <mxCell id="t48mmcYGpMNjEHupCj1k-116" value="" style="shape=tableRow;horizontal=0;startSize=0;swimlaneHead=0;swimlaneBody=0;strokeColor=inherit;top=0;left=0;bottom=0;right=0;collapsible=0;dropTarget=0;fillColor=none;points=[[0,0.5],[1,0.5]];portConstraint=eastwest;" vertex="1" parent="t48mmcYGpMNjEHupCj1k-99">
          <mxGeometry y="107" width="230" height="26" as="geometry" />
        </mxCell>
        <mxCell id="t48mmcYGpMNjEHupCj1k-117" value="instagram" style="shape=partialRectangle;html=1;whiteSpace=wrap;connectable=0;strokeColor=inherit;overflow=hidden;fillColor=none;top=0;left=0;bottom=0;right=0;pointerEvents=1;" vertex="1" parent="t48mmcYGpMNjEHupCj1k-116">
          <mxGeometry width="76" height="26" as="geometry">
            <mxRectangle width="76" height="26" as="alternateBounds" />
          </mxGeometry>
        </mxCell>
        <mxCell id="t48mmcYGpMNjEHupCj1k-118" value="String" style="shape=partialRectangle;html=1;whiteSpace=wrap;connectable=0;strokeColor=inherit;overflow=hidden;fillColor=none;top=0;left=0;bottom=0;right=0;pointerEvents=1;" vertex="1" parent="t48mmcYGpMNjEHupCj1k-116">
          <mxGeometry x="76" width="78" height="26" as="geometry">
            <mxRectangle width="78" height="26" as="alternateBounds" />
          </mxGeometry>
        </mxCell>
        <mxCell id="t48mmcYGpMNjEHupCj1k-119" value="" style="shape=partialRectangle;html=1;whiteSpace=wrap;connectable=0;strokeColor=inherit;overflow=hidden;fillColor=none;top=0;left=0;bottom=0;right=0;pointerEvents=1;" vertex="1" parent="t48mmcYGpMNjEHupCj1k-116">
          <mxGeometry x="154" width="76" height="26" as="geometry">
            <mxRectangle width="76" height="26" as="alternateBounds" />
          </mxGeometry>
        </mxCell>
        <mxCell id="t48mmcYGpMNjEHupCj1k-120" value="" style="shape=tableRow;horizontal=0;startSize=0;swimlaneHead=0;swimlaneBody=0;strokeColor=inherit;top=0;left=0;bottom=0;right=0;collapsible=0;dropTarget=0;fillColor=none;points=[[0,0.5],[1,0.5]];portConstraint=eastwest;" vertex="1" parent="t48mmcYGpMNjEHupCj1k-99">
          <mxGeometry y="133" width="230" height="27" as="geometry" />
        </mxCell>
        <mxCell id="t48mmcYGpMNjEHupCj1k-121" value="facebook" style="shape=partialRectangle;html=1;whiteSpace=wrap;connectable=0;strokeColor=inherit;overflow=hidden;fillColor=none;top=0;left=0;bottom=0;right=0;pointerEvents=1;" vertex="1" parent="t48mmcYGpMNjEHupCj1k-120">
          <mxGeometry width="76" height="27" as="geometry">
            <mxRectangle width="76" height="27" as="alternateBounds" />
          </mxGeometry>
        </mxCell>
        <mxCell id="t48mmcYGpMNjEHupCj1k-122" value="String" style="shape=partialRectangle;html=1;whiteSpace=wrap;connectable=0;strokeColor=inherit;overflow=hidden;fillColor=none;top=0;left=0;bottom=0;right=0;pointerEvents=1;" vertex="1" parent="t48mmcYGpMNjEHupCj1k-120">
          <mxGeometry x="76" width="78" height="27" as="geometry">
            <mxRectangle width="78" height="27" as="alternateBounds" />
          </mxGeometry>
        </mxCell>
        <mxCell id="t48mmcYGpMNjEHupCj1k-123" value="" style="shape=partialRectangle;html=1;whiteSpace=wrap;connectable=0;strokeColor=inherit;overflow=hidden;fillColor=none;top=0;left=0;bottom=0;right=0;pointerEvents=1;" vertex="1" parent="t48mmcYGpMNjEHupCj1k-120">
          <mxGeometry x="154" width="76" height="27" as="geometry">
            <mxRectangle width="76" height="27" as="alternateBounds" />
          </mxGeometry>
        </mxCell>
        <mxCell id="t48mmcYGpMNjEHupCj1k-124" value="" style="shape=tableRow;horizontal=0;startSize=0;swimlaneHead=0;swimlaneBody=0;strokeColor=inherit;top=0;left=0;bottom=0;right=0;collapsible=0;dropTarget=0;fillColor=none;points=[[0,0.5],[1,0.5]];portConstraint=eastwest;" vertex="1" parent="t48mmcYGpMNjEHupCj1k-99">
          <mxGeometry y="160" width="230" height="27" as="geometry" />
        </mxCell>
        <mxCell id="t48mmcYGpMNjEHupCj1k-125" value="blog" style="shape=partialRectangle;html=1;whiteSpace=wrap;connectable=0;strokeColor=inherit;overflow=hidden;fillColor=none;top=0;left=0;bottom=0;right=0;pointerEvents=1;" vertex="1" parent="t48mmcYGpMNjEHupCj1k-124">
          <mxGeometry width="76" height="27" as="geometry">
            <mxRectangle width="76" height="27" as="alternateBounds" />
          </mxGeometry>
        </mxCell>
        <mxCell id="t48mmcYGpMNjEHupCj1k-126" value="String" style="shape=partialRectangle;html=1;whiteSpace=wrap;connectable=0;strokeColor=inherit;overflow=hidden;fillColor=none;top=0;left=0;bottom=0;right=0;pointerEvents=1;" vertex="1" parent="t48mmcYGpMNjEHupCj1k-124">
          <mxGeometry x="76" width="78" height="27" as="geometry">
            <mxRectangle width="78" height="27" as="alternateBounds" />
          </mxGeometry>
        </mxCell>
        <mxCell id="t48mmcYGpMNjEHupCj1k-127" value="" style="shape=partialRectangle;html=1;whiteSpace=wrap;connectable=0;strokeColor=inherit;overflow=hidden;fillColor=none;top=0;left=0;bottom=0;right=0;pointerEvents=1;" vertex="1" parent="t48mmcYGpMNjEHupCj1k-124">
          <mxGeometry x="154" width="76" height="27" as="geometry">
            <mxRectangle width="76" height="27" as="alternateBounds" />
          </mxGeometry>
        </mxCell>
        <mxCell id="t48mmcYGpMNjEHupCj1k-128" value="" style="shape=tableRow;horizontal=0;startSize=0;swimlaneHead=0;swimlaneBody=0;strokeColor=inherit;top=0;left=0;bottom=0;right=0;collapsible=0;dropTarget=0;fillColor=none;points=[[0,0.5],[1,0.5]];portConstraint=eastwest;" vertex="1" parent="t48mmcYGpMNjEHupCj1k-99">
          <mxGeometry y="187" width="230" height="26" as="geometry" />
        </mxCell>
        <mxCell id="t48mmcYGpMNjEHupCj1k-129" value="youtube" style="shape=partialRectangle;html=1;whiteSpace=wrap;connectable=0;strokeColor=inherit;overflow=hidden;fillColor=none;top=0;left=0;bottom=0;right=0;pointerEvents=1;" vertex="1" parent="t48mmcYGpMNjEHupCj1k-128">
          <mxGeometry width="76" height="26" as="geometry">
            <mxRectangle width="76" height="26" as="alternateBounds" />
          </mxGeometry>
        </mxCell>
        <mxCell id="t48mmcYGpMNjEHupCj1k-130" value="String" style="shape=partialRectangle;html=1;whiteSpace=wrap;connectable=0;strokeColor=inherit;overflow=hidden;fillColor=none;top=0;left=0;bottom=0;right=0;pointerEvents=1;" vertex="1" parent="t48mmcYGpMNjEHupCj1k-128">
          <mxGeometry x="76" width="78" height="26" as="geometry">
            <mxRectangle width="78" height="26" as="alternateBounds" />
          </mxGeometry>
        </mxCell>
        <mxCell id="t48mmcYGpMNjEHupCj1k-131" value="" style="shape=partialRectangle;html=1;whiteSpace=wrap;connectable=0;strokeColor=inherit;overflow=hidden;fillColor=none;top=0;left=0;bottom=0;right=0;pointerEvents=1;" vertex="1" parent="t48mmcYGpMNjEHupCj1k-128">
          <mxGeometry x="154" width="76" height="26" as="geometry">
            <mxRectangle width="76" height="26" as="alternateBounds" />
          </mxGeometry>
        </mxCell>
        <mxCell id="t48mmcYGpMNjEHupCj1k-132" value="" style="shape=tableRow;horizontal=0;startSize=0;swimlaneHead=0;swimlaneBody=0;strokeColor=inherit;top=0;left=0;bottom=0;right=0;collapsible=0;dropTarget=0;fillColor=none;points=[[0,0.5],[1,0.5]];portConstraint=eastwest;" vertex="1" parent="t48mmcYGpMNjEHupCj1k-99">
          <mxGeometry y="213" width="230" height="27" as="geometry" />
        </mxCell>
        <mxCell id="t48mmcYGpMNjEHupCj1k-133" value="tiktok" style="shape=partialRectangle;html=1;whiteSpace=wrap;connectable=0;strokeColor=inherit;overflow=hidden;fillColor=none;top=0;left=0;bottom=0;right=0;pointerEvents=1;" vertex="1" parent="t48mmcYGpMNjEHupCj1k-132">
          <mxGeometry width="76" height="27" as="geometry">
            <mxRectangle width="76" height="27" as="alternateBounds" />
          </mxGeometry>
        </mxCell>
        <mxCell id="t48mmcYGpMNjEHupCj1k-134" value="String" style="shape=partialRectangle;html=1;whiteSpace=wrap;connectable=0;strokeColor=inherit;overflow=hidden;fillColor=none;top=0;left=0;bottom=0;right=0;pointerEvents=1;" vertex="1" parent="t48mmcYGpMNjEHupCj1k-132">
          <mxGeometry x="76" width="78" height="27" as="geometry">
            <mxRectangle width="78" height="27" as="alternateBounds" />
          </mxGeometry>
        </mxCell>
        <mxCell id="t48mmcYGpMNjEHupCj1k-135" value="" style="shape=partialRectangle;html=1;whiteSpace=wrap;connectable=0;strokeColor=inherit;overflow=hidden;fillColor=none;top=0;left=0;bottom=0;right=0;pointerEvents=1;" vertex="1" parent="t48mmcYGpMNjEHupCj1k-132">
          <mxGeometry x="154" width="76" height="27" as="geometry">
            <mxRectangle width="76" height="27" as="alternateBounds" />
          </mxGeometry>
        </mxCell>
        <mxCell id="t48mmcYGpMNjEHupCj1k-136" value="" style="shape=tableRow;horizontal=0;startSize=0;swimlaneHead=0;swimlaneBody=0;strokeColor=inherit;top=0;left=0;bottom=0;right=0;collapsible=0;dropTarget=0;fillColor=none;points=[[0,0.5],[1,0.5]];portConstraint=eastwest;" vertex="1" parent="t48mmcYGpMNjEHupCj1k-99">
          <mxGeometry y="240" width="230" height="27" as="geometry" />
        </mxCell>
        <mxCell id="t48mmcYGpMNjEHupCj1k-137" value="snapchat" style="shape=partialRectangle;html=1;whiteSpace=wrap;connectable=0;strokeColor=inherit;overflow=hidden;fillColor=none;top=0;left=0;bottom=0;right=0;pointerEvents=1;" vertex="1" parent="t48mmcYGpMNjEHupCj1k-136">
          <mxGeometry width="76" height="27" as="geometry">
            <mxRectangle width="76" height="27" as="alternateBounds" />
          </mxGeometry>
        </mxCell>
        <mxCell id="t48mmcYGpMNjEHupCj1k-138" value="String" style="shape=partialRectangle;html=1;whiteSpace=wrap;connectable=0;strokeColor=inherit;overflow=hidden;fillColor=none;top=0;left=0;bottom=0;right=0;pointerEvents=1;" vertex="1" parent="t48mmcYGpMNjEHupCj1k-136">
          <mxGeometry x="76" width="78" height="27" as="geometry">
            <mxRectangle width="78" height="27" as="alternateBounds" />
          </mxGeometry>
        </mxCell>
        <mxCell id="t48mmcYGpMNjEHupCj1k-139" value="" style="shape=partialRectangle;html=1;whiteSpace=wrap;connectable=0;strokeColor=inherit;overflow=hidden;fillColor=none;top=0;left=0;bottom=0;right=0;pointerEvents=1;" vertex="1" parent="t48mmcYGpMNjEHupCj1k-136">
          <mxGeometry x="154" width="76" height="27" as="geometry">
            <mxRectangle width="76" height="27" as="alternateBounds" />
          </mxGeometry>
        </mxCell>
        <mxCell id="t48mmcYGpMNjEHupCj1k-140" value="" style="shape=tableRow;horizontal=0;startSize=0;swimlaneHead=0;swimlaneBody=0;strokeColor=inherit;top=0;left=0;bottom=0;right=0;collapsible=0;dropTarget=0;fillColor=none;points=[[0,0.5],[1,0.5]];portConstraint=eastwest;" vertex="1" parent="t48mmcYGpMNjEHupCj1k-99">
          <mxGeometry y="267" width="230" height="26" as="geometry" />
        </mxCell>
        <mxCell id="t48mmcYGpMNjEHupCj1k-141" value="map" style="shape=partialRectangle;html=1;whiteSpace=wrap;connectable=0;strokeColor=inherit;overflow=hidden;fillColor=none;top=0;left=0;bottom=0;right=0;pointerEvents=1;" vertex="1" parent="t48mmcYGpMNjEHupCj1k-140">
          <mxGeometry width="76" height="26" as="geometry">
            <mxRectangle width="76" height="26" as="alternateBounds" />
          </mxGeometry>
        </mxCell>
        <mxCell id="t48mmcYGpMNjEHupCj1k-142" value="String" style="shape=partialRectangle;html=1;whiteSpace=wrap;connectable=0;strokeColor=inherit;overflow=hidden;fillColor=none;top=0;left=0;bottom=0;right=0;pointerEvents=1;" vertex="1" parent="t48mmcYGpMNjEHupCj1k-140">
          <mxGeometry x="76" width="78" height="26" as="geometry">
            <mxRectangle width="78" height="26" as="alternateBounds" />
          </mxGeometry>
        </mxCell>
        <mxCell id="t48mmcYGpMNjEHupCj1k-143" value="" style="shape=partialRectangle;html=1;whiteSpace=wrap;connectable=0;strokeColor=inherit;overflow=hidden;fillColor=none;top=0;left=0;bottom=0;right=0;pointerEvents=1;" vertex="1" parent="t48mmcYGpMNjEHupCj1k-140">
          <mxGeometry x="154" width="76" height="26" as="geometry">
            <mxRectangle width="76" height="26" as="alternateBounds" />
          </mxGeometry>
        </mxCell>
        <mxCell id="t48mmcYGpMNjEHupCj1k-144" value="" style="shape=tableRow;horizontal=0;startSize=0;swimlaneHead=0;swimlaneBody=0;strokeColor=inherit;top=0;left=0;bottom=0;right=0;collapsible=0;dropTarget=0;fillColor=none;points=[[0,0.5],[1,0.5]];portConstraint=eastwest;" vertex="1" parent="t48mmcYGpMNjEHupCj1k-99">
          <mxGeometry y="293" width="230" height="27" as="geometry" />
        </mxCell>
        <mxCell id="t48mmcYGpMNjEHupCj1k-145" value="searchQuery" style="shape=partialRectangle;html=1;whiteSpace=wrap;connectable=0;strokeColor=inherit;overflow=hidden;fillColor=none;top=0;left=0;bottom=0;right=0;pointerEvents=1;" vertex="1" parent="t48mmcYGpMNjEHupCj1k-144">
          <mxGeometry width="76" height="27" as="geometry">
            <mxRectangle width="76" height="27" as="alternateBounds" />
          </mxGeometry>
        </mxCell>
        <mxCell id="t48mmcYGpMNjEHupCj1k-146" value="String" style="shape=partialRectangle;html=1;whiteSpace=wrap;connectable=0;strokeColor=inherit;overflow=hidden;fillColor=none;top=0;left=0;bottom=0;right=0;pointerEvents=1;" vertex="1" parent="t48mmcYGpMNjEHupCj1k-144">
          <mxGeometry x="76" width="78" height="27" as="geometry">
            <mxRectangle width="78" height="27" as="alternateBounds" />
          </mxGeometry>
        </mxCell>
        <mxCell id="t48mmcYGpMNjEHupCj1k-147" value="" style="shape=partialRectangle;html=1;whiteSpace=wrap;connectable=0;strokeColor=inherit;overflow=hidden;fillColor=none;top=0;left=0;bottom=0;right=0;pointerEvents=1;" vertex="1" parent="t48mmcYGpMNjEHupCj1k-144">
          <mxGeometry x="154" width="76" height="27" as="geometry">
            <mxRectangle width="76" height="27" as="alternateBounds" />
          </mxGeometry>
        </mxCell>
        <mxCell id="t48mmcYGpMNjEHupCj1k-152" value="details" style="whiteSpace=wrap;html=1;" vertex="1" parent="t48mmcYGpMNjEHupCj1k-219">
          <mxGeometry x="-280" y="-70" width="120" height="20" as="geometry" />
        </mxCell>
        <mxCell id="t48mmcYGpMNjEHupCj1k-259" value="" style="group" vertex="1" connectable="0" parent="t48mmcYGpMNjEHupCj1k-219">
          <mxGeometry x="10" y="90" width="260" height="210" as="geometry" />
        </mxCell>
        <mxCell id="t48mmcYGpMNjEHupCj1k-223" value="" style="shape=table;startSize=0;container=1;collapsible=0;childLayout=tableLayout;" vertex="1" parent="t48mmcYGpMNjEHupCj1k-259">
          <mxGeometry y="20" width="260" height="190" as="geometry" />
        </mxCell>
        <mxCell id="t48mmcYGpMNjEHupCj1k-224" value="" style="shape=tableRow;horizontal=0;startSize=0;swimlaneHead=0;swimlaneBody=0;strokeColor=inherit;top=0;left=0;bottom=0;right=0;collapsible=0;dropTarget=0;fillColor=none;points=[[0,0.5],[1,0.5]];portConstraint=eastwest;" vertex="1" parent="t48mmcYGpMNjEHupCj1k-223">
          <mxGeometry width="260" height="24" as="geometry" />
        </mxCell>
        <mxCell id="t48mmcYGpMNjEHupCj1k-225" value="id" style="shape=partialRectangle;html=1;whiteSpace=wrap;connectable=0;strokeColor=inherit;overflow=hidden;fillColor=none;top=0;left=0;bottom=0;right=0;pointerEvents=1;" vertex="1" parent="t48mmcYGpMNjEHupCj1k-224">
          <mxGeometry width="87" height="24" as="geometry">
            <mxRectangle width="87" height="24" as="alternateBounds" />
          </mxGeometry>
        </mxCell>
        <mxCell id="t48mmcYGpMNjEHupCj1k-226" value="Int" style="shape=partialRectangle;html=1;whiteSpace=wrap;connectable=0;strokeColor=inherit;overflow=hidden;fillColor=none;top=0;left=0;bottom=0;right=0;pointerEvents=1;" vertex="1" parent="t48mmcYGpMNjEHupCj1k-224">
          <mxGeometry x="87" width="86" height="24" as="geometry">
            <mxRectangle width="86" height="24" as="alternateBounds" />
          </mxGeometry>
        </mxCell>
        <mxCell id="t48mmcYGpMNjEHupCj1k-227" value="" style="shape=partialRectangle;html=1;whiteSpace=wrap;connectable=0;strokeColor=inherit;overflow=hidden;fillColor=none;top=0;left=0;bottom=0;right=0;pointerEvents=1;" vertex="1" parent="t48mmcYGpMNjEHupCj1k-224">
          <mxGeometry x="173" width="87" height="24" as="geometry">
            <mxRectangle width="87" height="24" as="alternateBounds" />
          </mxGeometry>
        </mxCell>
        <mxCell id="t48mmcYGpMNjEHupCj1k-228" value="" style="shape=tableRow;horizontal=0;startSize=0;swimlaneHead=0;swimlaneBody=0;strokeColor=inherit;top=0;left=0;bottom=0;right=0;collapsible=0;dropTarget=0;fillColor=none;points=[[0,0.5],[1,0.5]];portConstraint=eastwest;" vertex="1" parent="t48mmcYGpMNjEHupCj1k-223">
          <mxGeometry y="24" width="260" height="24" as="geometry" />
        </mxCell>
        <mxCell id="t48mmcYGpMNjEHupCj1k-229" value="eventDateFrom" style="shape=partialRectangle;html=1;whiteSpace=wrap;connectable=0;strokeColor=inherit;overflow=hidden;fillColor=none;top=0;left=0;bottom=0;right=0;pointerEvents=1;" vertex="1" parent="t48mmcYGpMNjEHupCj1k-228">
          <mxGeometry width="87" height="24" as="geometry">
            <mxRectangle width="87" height="24" as="alternateBounds" />
          </mxGeometry>
        </mxCell>
        <mxCell id="t48mmcYGpMNjEHupCj1k-230" value="String" style="shape=partialRectangle;html=1;whiteSpace=wrap;connectable=0;strokeColor=inherit;overflow=hidden;fillColor=none;top=0;left=0;bottom=0;right=0;pointerEvents=1;" vertex="1" parent="t48mmcYGpMNjEHupCj1k-228">
          <mxGeometry x="87" width="86" height="24" as="geometry">
            <mxRectangle width="86" height="24" as="alternateBounds" />
          </mxGeometry>
        </mxCell>
        <mxCell id="t48mmcYGpMNjEHupCj1k-231" value="" style="shape=partialRectangle;html=1;whiteSpace=wrap;connectable=0;strokeColor=inherit;overflow=hidden;fillColor=none;top=0;left=0;bottom=0;right=0;pointerEvents=1;" vertex="1" parent="t48mmcYGpMNjEHupCj1k-228">
          <mxGeometry x="173" width="87" height="24" as="geometry">
            <mxRectangle width="87" height="24" as="alternateBounds" />
          </mxGeometry>
        </mxCell>
        <mxCell id="t48mmcYGpMNjEHupCj1k-232" value="" style="shape=tableRow;horizontal=0;startSize=0;swimlaneHead=0;swimlaneBody=0;strokeColor=inherit;top=0;left=0;bottom=0;right=0;collapsible=0;dropTarget=0;fillColor=none;points=[[0,0.5],[1,0.5]];portConstraint=eastwest;" vertex="1" parent="t48mmcYGpMNjEHupCj1k-223">
          <mxGeometry y="48" width="260" height="23" as="geometry" />
        </mxCell>
        <mxCell id="t48mmcYGpMNjEHupCj1k-233" value="eventDateTo" style="shape=partialRectangle;html=1;whiteSpace=wrap;connectable=0;strokeColor=inherit;overflow=hidden;fillColor=none;top=0;left=0;bottom=0;right=0;pointerEvents=1;" vertex="1" parent="t48mmcYGpMNjEHupCj1k-232">
          <mxGeometry width="87" height="23" as="geometry">
            <mxRectangle width="87" height="23" as="alternateBounds" />
          </mxGeometry>
        </mxCell>
        <mxCell id="t48mmcYGpMNjEHupCj1k-234" value="String" style="shape=partialRectangle;html=1;whiteSpace=wrap;connectable=0;strokeColor=inherit;overflow=hidden;fillColor=none;top=0;left=0;bottom=0;right=0;pointerEvents=1;" vertex="1" parent="t48mmcYGpMNjEHupCj1k-232">
          <mxGeometry x="87" width="86" height="23" as="geometry">
            <mxRectangle width="86" height="23" as="alternateBounds" />
          </mxGeometry>
        </mxCell>
        <mxCell id="t48mmcYGpMNjEHupCj1k-235" value="" style="shape=partialRectangle;html=1;whiteSpace=wrap;connectable=0;strokeColor=inherit;overflow=hidden;fillColor=none;top=0;left=0;bottom=0;right=0;pointerEvents=1;" vertex="1" parent="t48mmcYGpMNjEHupCj1k-232">
          <mxGeometry x="173" width="87" height="23" as="geometry">
            <mxRectangle width="87" height="23" as="alternateBounds" />
          </mxGeometry>
        </mxCell>
        <mxCell id="t48mmcYGpMNjEHupCj1k-236" value="" style="shape=tableRow;horizontal=0;startSize=0;swimlaneHead=0;swimlaneBody=0;strokeColor=inherit;top=0;left=0;bottom=0;right=0;collapsible=0;dropTarget=0;fillColor=none;points=[[0,0.5],[1,0.5]];portConstraint=eastwest;" vertex="1" parent="t48mmcYGpMNjEHupCj1k-223">
          <mxGeometry y="71" width="260" height="24" as="geometry" />
        </mxCell>
        <mxCell id="t48mmcYGpMNjEHupCj1k-237" value="hospital_id" style="shape=partialRectangle;html=1;whiteSpace=wrap;connectable=0;strokeColor=inherit;overflow=hidden;fillColor=none;top=0;left=0;bottom=0;right=0;pointerEvents=1;" vertex="1" parent="t48mmcYGpMNjEHupCj1k-236">
          <mxGeometry width="87" height="24" as="geometry">
            <mxRectangle width="87" height="24" as="alternateBounds" />
          </mxGeometry>
        </mxCell>
        <mxCell id="t48mmcYGpMNjEHupCj1k-238" value="Int" style="shape=partialRectangle;html=1;whiteSpace=wrap;connectable=0;strokeColor=inherit;overflow=hidden;fillColor=none;top=0;left=0;bottom=0;right=0;pointerEvents=1;" vertex="1" parent="t48mmcYGpMNjEHupCj1k-236">
          <mxGeometry x="87" width="86" height="24" as="geometry">
            <mxRectangle width="86" height="24" as="alternateBounds" />
          </mxGeometry>
        </mxCell>
        <mxCell id="t48mmcYGpMNjEHupCj1k-239" value="" style="shape=partialRectangle;html=1;whiteSpace=wrap;connectable=0;strokeColor=inherit;overflow=hidden;fillColor=none;top=0;left=0;bottom=0;right=0;pointerEvents=1;" vertex="1" parent="t48mmcYGpMNjEHupCj1k-236">
          <mxGeometry x="173" width="87" height="24" as="geometry">
            <mxRectangle width="87" height="24" as="alternateBounds" />
          </mxGeometry>
        </mxCell>
        <mxCell id="t48mmcYGpMNjEHupCj1k-240" value="" style="shape=tableRow;horizontal=0;startSize=0;swimlaneHead=0;swimlaneBody=0;strokeColor=inherit;top=0;left=0;bottom=0;right=0;collapsible=0;dropTarget=0;fillColor=none;points=[[0,0.5],[1,0.5]];portConstraint=eastwest;" vertex="1" parent="t48mmcYGpMNjEHupCj1k-223">
          <mxGeometry y="95" width="260" height="24" as="geometry" />
        </mxCell>
        <mxCell id="t48mmcYGpMNjEHupCj1k-241" value="eventName" style="shape=partialRectangle;html=1;whiteSpace=wrap;connectable=0;strokeColor=inherit;overflow=hidden;fillColor=none;top=0;left=0;bottom=0;right=0;pointerEvents=1;" vertex="1" parent="t48mmcYGpMNjEHupCj1k-240">
          <mxGeometry width="87" height="24" as="geometry">
            <mxRectangle width="87" height="24" as="alternateBounds" />
          </mxGeometry>
        </mxCell>
        <mxCell id="t48mmcYGpMNjEHupCj1k-242" value="String" style="shape=partialRectangle;html=1;whiteSpace=wrap;connectable=0;strokeColor=inherit;overflow=hidden;fillColor=none;top=0;left=0;bottom=0;right=0;pointerEvents=1;" vertex="1" parent="t48mmcYGpMNjEHupCj1k-240">
          <mxGeometry x="87" width="86" height="24" as="geometry">
            <mxRectangle width="86" height="24" as="alternateBounds" />
          </mxGeometry>
        </mxCell>
        <mxCell id="t48mmcYGpMNjEHupCj1k-243" value="" style="shape=partialRectangle;html=1;whiteSpace=wrap;connectable=0;strokeColor=inherit;overflow=hidden;fillColor=none;top=0;left=0;bottom=0;right=0;pointerEvents=1;" vertex="1" parent="t48mmcYGpMNjEHupCj1k-240">
          <mxGeometry x="173" width="87" height="24" as="geometry">
            <mxRectangle width="87" height="24" as="alternateBounds" />
          </mxGeometry>
        </mxCell>
        <mxCell id="t48mmcYGpMNjEHupCj1k-244" value="" style="shape=tableRow;horizontal=0;startSize=0;swimlaneHead=0;swimlaneBody=0;strokeColor=inherit;top=0;left=0;bottom=0;right=0;collapsible=0;dropTarget=0;fillColor=none;points=[[0,0.5],[1,0.5]];portConstraint=eastwest;" vertex="1" parent="t48mmcYGpMNjEHupCj1k-223">
          <mxGeometry y="119" width="260" height="24" as="geometry" />
        </mxCell>
        <mxCell id="t48mmcYGpMNjEHupCj1k-245" value="eventImg" style="shape=partialRectangle;html=1;whiteSpace=wrap;connectable=0;strokeColor=inherit;overflow=hidden;fillColor=none;top=0;left=0;bottom=0;right=0;pointerEvents=1;" vertex="1" parent="t48mmcYGpMNjEHupCj1k-244">
          <mxGeometry width="87" height="24" as="geometry">
            <mxRectangle width="87" height="24" as="alternateBounds" />
          </mxGeometry>
        </mxCell>
        <mxCell id="t48mmcYGpMNjEHupCj1k-246" value="String" style="shape=partialRectangle;html=1;whiteSpace=wrap;connectable=0;strokeColor=inherit;overflow=hidden;fillColor=none;top=0;left=0;bottom=0;right=0;pointerEvents=1;" vertex="1" parent="t48mmcYGpMNjEHupCj1k-244">
          <mxGeometry x="87" width="86" height="24" as="geometry">
            <mxRectangle width="86" height="24" as="alternateBounds" />
          </mxGeometry>
        </mxCell>
        <mxCell id="t48mmcYGpMNjEHupCj1k-247" value="" style="shape=partialRectangle;html=1;whiteSpace=wrap;connectable=0;strokeColor=inherit;overflow=hidden;fillColor=none;top=0;left=0;bottom=0;right=0;pointerEvents=1;" vertex="1" parent="t48mmcYGpMNjEHupCj1k-244">
          <mxGeometry x="173" width="87" height="24" as="geometry">
            <mxRectangle width="87" height="24" as="alternateBounds" />
          </mxGeometry>
        </mxCell>
        <mxCell id="t48mmcYGpMNjEHupCj1k-248" value="" style="shape=tableRow;horizontal=0;startSize=0;swimlaneHead=0;swimlaneBody=0;strokeColor=inherit;top=0;left=0;bottom=0;right=0;collapsible=0;dropTarget=0;fillColor=none;points=[[0,0.5],[1,0.5]];portConstraint=eastwest;" vertex="1" parent="t48mmcYGpMNjEHupCj1k-223">
          <mxGeometry y="143" width="260" height="23" as="geometry" />
        </mxCell>
        <mxCell id="t48mmcYGpMNjEHupCj1k-249" value="surgeryIds" style="shape=partialRectangle;html=1;whiteSpace=wrap;connectable=0;strokeColor=inherit;overflow=hidden;fillColor=none;top=0;left=0;bottom=0;right=0;pointerEvents=1;" vertex="1" parent="t48mmcYGpMNjEHupCj1k-248">
          <mxGeometry width="87" height="23" as="geometry">
            <mxRectangle width="87" height="23" as="alternateBounds" />
          </mxGeometry>
        </mxCell>
        <mxCell id="t48mmcYGpMNjEHupCj1k-250" value="Int Array" style="shape=partialRectangle;html=1;whiteSpace=wrap;connectable=0;strokeColor=inherit;overflow=hidden;fillColor=none;top=0;left=0;bottom=0;right=0;pointerEvents=1;" vertex="1" parent="t48mmcYGpMNjEHupCj1k-248">
          <mxGeometry x="87" width="86" height="23" as="geometry">
            <mxRectangle width="86" height="23" as="alternateBounds" />
          </mxGeometry>
        </mxCell>
        <mxCell id="t48mmcYGpMNjEHupCj1k-251" value="" style="shape=partialRectangle;html=1;whiteSpace=wrap;connectable=0;strokeColor=inherit;overflow=hidden;fillColor=none;top=0;left=0;bottom=0;right=0;pointerEvents=1;" vertex="1" parent="t48mmcYGpMNjEHupCj1k-248">
          <mxGeometry x="173" width="87" height="23" as="geometry">
            <mxRectangle width="87" height="23" as="alternateBounds" />
          </mxGeometry>
        </mxCell>
        <mxCell id="t48mmcYGpMNjEHupCj1k-252" value="" style="shape=tableRow;horizontal=0;startSize=0;swimlaneHead=0;swimlaneBody=0;strokeColor=inherit;top=0;left=0;bottom=0;right=0;collapsible=0;dropTarget=0;fillColor=none;points=[[0,0.5],[1,0.5]];portConstraint=eastwest;" vertex="1" parent="t48mmcYGpMNjEHupCj1k-223">
          <mxGeometry y="166" width="260" height="24" as="geometry" />
        </mxCell>
        <mxCell id="t48mmcYGpMNjEHupCj1k-253" value="desc" style="shape=partialRectangle;html=1;whiteSpace=wrap;connectable=0;strokeColor=inherit;overflow=hidden;fillColor=none;top=0;left=0;bottom=0;right=0;pointerEvents=1;" vertex="1" parent="t48mmcYGpMNjEHupCj1k-252">
          <mxGeometry width="87" height="24" as="geometry">
            <mxRectangle width="87" height="24" as="alternateBounds" />
          </mxGeometry>
        </mxCell>
        <mxCell id="t48mmcYGpMNjEHupCj1k-254" value="String" style="shape=partialRectangle;html=1;whiteSpace=wrap;connectable=0;strokeColor=inherit;overflow=hidden;fillColor=none;top=0;left=0;bottom=0;right=0;pointerEvents=1;" vertex="1" parent="t48mmcYGpMNjEHupCj1k-252">
          <mxGeometry x="87" width="86" height="24" as="geometry">
            <mxRectangle width="86" height="24" as="alternateBounds" />
          </mxGeometry>
        </mxCell>
        <mxCell id="t48mmcYGpMNjEHupCj1k-255" value="" style="shape=partialRectangle;html=1;whiteSpace=wrap;connectable=0;strokeColor=inherit;overflow=hidden;fillColor=none;top=0;left=0;bottom=0;right=0;pointerEvents=1;" vertex="1" parent="t48mmcYGpMNjEHupCj1k-252">
          <mxGeometry x="173" width="87" height="24" as="geometry">
            <mxRectangle width="87" height="24" as="alternateBounds" />
          </mxGeometry>
        </mxCell>
        <mxCell id="t48mmcYGpMNjEHupCj1k-258" value="events" style="whiteSpace=wrap;html=1;" vertex="1" parent="t48mmcYGpMNjEHupCj1k-259">
          <mxGeometry x="85" width="90" height="20" as="geometry" />
        </mxCell>
        <mxCell id="t48mmcYGpMNjEHupCj1k-220" value="" style="group" vertex="1" connectable="0" parent="1">
          <mxGeometry x="390" y="20" width="400" height="102" as="geometry" />
        </mxCell>
        <mxCell id="t48mmcYGpMNjEHupCj1k-151" value="surgery" style="whiteSpace=wrap;html=1;" vertex="1" parent="t48mmcYGpMNjEHupCj1k-220">
          <mxGeometry x="210" y="2" width="120" height="20" as="geometry" />
        </mxCell>
        <mxCell id="t48mmcYGpMNjEHupCj1k-82" value="" style="shape=table;startSize=0;container=1;collapsible=0;childLayout=tableLayout;" vertex="1" parent="t48mmcYGpMNjEHupCj1k-220">
          <mxGeometry x="140" y="22" width="260" height="80" as="geometry" />
        </mxCell>
        <mxCell id="t48mmcYGpMNjEHupCj1k-83" value="" style="shape=tableRow;horizontal=0;startSize=0;swimlaneHead=0;swimlaneBody=0;strokeColor=inherit;top=0;left=0;bottom=0;right=0;collapsible=0;dropTarget=0;fillColor=none;points=[[0,0.5],[1,0.5]];portConstraint=eastwest;" vertex="1" parent="t48mmcYGpMNjEHupCj1k-82">
          <mxGeometry width="260" height="20" as="geometry" />
        </mxCell>
        <mxCell id="t48mmcYGpMNjEHupCj1k-84" value="&lt;meta charset=&quot;utf-8&quot;&gt;&lt;span style=&quot;color: rgb(0, 0, 0); font-family: Helvetica; font-size: 12px; font-style: normal; font-variant-ligatures: normal; font-variant-caps: normal; font-weight: 400; letter-spacing: normal; orphans: 2; text-align: center; text-indent: 0px; text-transform: none; widows: 2; word-spacing: 0px; -webkit-text-stroke-width: 0px; white-space: normal; background-color: rgb(251, 251, 251); text-decoration-thickness: initial; text-decoration-style: initial; text-decoration-color: initial; display: inline !important; float: none;&quot;&gt;id&lt;/span&gt;" style="shape=partialRectangle;html=1;whiteSpace=wrap;connectable=0;strokeColor=inherit;overflow=hidden;fillColor=none;top=0;left=0;bottom=0;right=0;pointerEvents=1;" vertex="1" parent="t48mmcYGpMNjEHupCj1k-83">
          <mxGeometry width="117" height="20" as="geometry">
            <mxRectangle width="117" height="20" as="alternateBounds" />
          </mxGeometry>
        </mxCell>
        <mxCell id="t48mmcYGpMNjEHupCj1k-85" value="Int" style="shape=partialRectangle;html=1;whiteSpace=wrap;connectable=0;strokeColor=inherit;overflow=hidden;fillColor=none;top=0;left=0;bottom=0;right=0;pointerEvents=1;" vertex="1" parent="t48mmcYGpMNjEHupCj1k-83">
          <mxGeometry x="117" width="73" height="20" as="geometry">
            <mxRectangle width="73" height="20" as="alternateBounds" />
          </mxGeometry>
        </mxCell>
        <mxCell id="t48mmcYGpMNjEHupCj1k-86" value="" style="shape=partialRectangle;html=1;whiteSpace=wrap;connectable=0;strokeColor=inherit;overflow=hidden;fillColor=none;top=0;left=0;bottom=0;right=0;pointerEvents=1;" vertex="1" parent="t48mmcYGpMNjEHupCj1k-83">
          <mxGeometry x="190" width="70" height="20" as="geometry">
            <mxRectangle width="70" height="20" as="alternateBounds" />
          </mxGeometry>
        </mxCell>
        <mxCell id="t48mmcYGpMNjEHupCj1k-87" value="" style="shape=tableRow;horizontal=0;startSize=0;swimlaneHead=0;swimlaneBody=0;strokeColor=inherit;top=0;left=0;bottom=0;right=0;collapsible=0;dropTarget=0;fillColor=none;points=[[0,0.5],[1,0.5]];portConstraint=eastwest;" vertex="1" parent="t48mmcYGpMNjEHupCj1k-82">
          <mxGeometry y="20" width="260" height="20" as="geometry" />
        </mxCell>
        <mxCell id="t48mmcYGpMNjEHupCj1k-88" value="&lt;meta charset=&quot;utf-8&quot;&gt;&lt;span style=&quot;color: rgb(0, 0, 0); font-family: Helvetica; font-size: 12px; font-style: normal; font-variant-ligatures: normal; font-variant-caps: normal; font-weight: 400; letter-spacing: normal; orphans: 2; text-align: center; text-indent: 0px; text-transform: none; widows: 2; word-spacing: 0px; -webkit-text-stroke-width: 0px; white-space: normal; background-color: rgb(251, 251, 251); text-decoration-thickness: initial; text-decoration-style: initial; text-decoration-color: initial; display: inline !important; float: none;&quot;&gt;surgeryName&lt;/span&gt;" style="shape=partialRectangle;html=1;whiteSpace=wrap;connectable=0;strokeColor=inherit;overflow=hidden;fillColor=none;top=0;left=0;bottom=0;right=0;pointerEvents=1;" vertex="1" parent="t48mmcYGpMNjEHupCj1k-87">
          <mxGeometry width="117" height="20" as="geometry">
            <mxRectangle width="117" height="20" as="alternateBounds" />
          </mxGeometry>
        </mxCell>
        <mxCell id="t48mmcYGpMNjEHupCj1k-89" value="String" style="shape=partialRectangle;html=1;whiteSpace=wrap;connectable=0;strokeColor=inherit;overflow=hidden;fillColor=none;top=0;left=0;bottom=0;right=0;pointerEvents=1;" vertex="1" parent="t48mmcYGpMNjEHupCj1k-87">
          <mxGeometry x="117" width="73" height="20" as="geometry">
            <mxRectangle width="73" height="20" as="alternateBounds" />
          </mxGeometry>
        </mxCell>
        <mxCell id="t48mmcYGpMNjEHupCj1k-90" value="" style="shape=partialRectangle;html=1;whiteSpace=wrap;connectable=0;strokeColor=inherit;overflow=hidden;fillColor=none;top=0;left=0;bottom=0;right=0;pointerEvents=1;" vertex="1" parent="t48mmcYGpMNjEHupCj1k-87">
          <mxGeometry x="190" width="70" height="20" as="geometry">
            <mxRectangle width="70" height="20" as="alternateBounds" />
          </mxGeometry>
        </mxCell>
        <mxCell id="t48mmcYGpMNjEHupCj1k-91" value="" style="shape=tableRow;horizontal=0;startSize=0;swimlaneHead=0;swimlaneBody=0;strokeColor=inherit;top=0;left=0;bottom=0;right=0;collapsible=0;dropTarget=0;fillColor=none;points=[[0,0.5],[1,0.5]];portConstraint=eastwest;" vertex="1" parent="t48mmcYGpMNjEHupCj1k-82">
          <mxGeometry y="40" width="260" height="20" as="geometry" />
        </mxCell>
        <mxCell id="t48mmcYGpMNjEHupCj1k-92" value="surgeryImgs" style="shape=partialRectangle;html=1;whiteSpace=wrap;connectable=0;strokeColor=inherit;overflow=hidden;fillColor=none;top=0;left=0;bottom=0;right=0;pointerEvents=1;" vertex="1" parent="t48mmcYGpMNjEHupCj1k-91">
          <mxGeometry width="117" height="20" as="geometry">
            <mxRectangle width="117" height="20" as="alternateBounds" />
          </mxGeometry>
        </mxCell>
        <mxCell id="t48mmcYGpMNjEHupCj1k-93" value="String Array" style="shape=partialRectangle;html=1;whiteSpace=wrap;connectable=0;strokeColor=inherit;overflow=hidden;fillColor=none;top=0;left=0;bottom=0;right=0;pointerEvents=1;" vertex="1" parent="t48mmcYGpMNjEHupCj1k-91">
          <mxGeometry x="117" width="73" height="20" as="geometry">
            <mxRectangle width="73" height="20" as="alternateBounds" />
          </mxGeometry>
        </mxCell>
        <mxCell id="t48mmcYGpMNjEHupCj1k-94" value="" style="shape=partialRectangle;html=1;whiteSpace=wrap;connectable=0;strokeColor=inherit;overflow=hidden;fillColor=none;top=0;left=0;bottom=0;right=0;pointerEvents=1;" vertex="1" parent="t48mmcYGpMNjEHupCj1k-91">
          <mxGeometry x="190" width="70" height="20" as="geometry">
            <mxRectangle width="70" height="20" as="alternateBounds" />
          </mxGeometry>
        </mxCell>
        <mxCell id="t48mmcYGpMNjEHupCj1k-95" value="" style="shape=tableRow;horizontal=0;startSize=0;swimlaneHead=0;swimlaneBody=0;strokeColor=inherit;top=0;left=0;bottom=0;right=0;collapsible=0;dropTarget=0;fillColor=none;points=[[0,0.5],[1,0.5]];portConstraint=eastwest;" vertex="1" parent="t48mmcYGpMNjEHupCj1k-82">
          <mxGeometry y="60" width="260" height="20" as="geometry" />
        </mxCell>
        <mxCell id="t48mmcYGpMNjEHupCj1k-96" value="surgeryDesc" style="shape=partialRectangle;html=1;whiteSpace=wrap;connectable=0;strokeColor=inherit;overflow=hidden;fillColor=none;top=0;left=0;bottom=0;right=0;pointerEvents=1;" vertex="1" parent="t48mmcYGpMNjEHupCj1k-95">
          <mxGeometry width="117" height="20" as="geometry">
            <mxRectangle width="117" height="20" as="alternateBounds" />
          </mxGeometry>
        </mxCell>
        <mxCell id="t48mmcYGpMNjEHupCj1k-97" value="String" style="shape=partialRectangle;html=1;whiteSpace=wrap;connectable=0;strokeColor=inherit;overflow=hidden;fillColor=none;top=0;left=0;bottom=0;right=0;pointerEvents=1;" vertex="1" parent="t48mmcYGpMNjEHupCj1k-95">
          <mxGeometry x="117" width="73" height="20" as="geometry">
            <mxRectangle width="73" height="20" as="alternateBounds" />
          </mxGeometry>
        </mxCell>
        <mxCell id="t48mmcYGpMNjEHupCj1k-98" value="" style="shape=partialRectangle;html=1;whiteSpace=wrap;connectable=0;strokeColor=inherit;overflow=hidden;fillColor=none;top=0;left=0;bottom=0;right=0;pointerEvents=1;" vertex="1" parent="t48mmcYGpMNjEHupCj1k-95">
          <mxGeometry x="190" width="70" height="20" as="geometry">
            <mxRectangle width="70" height="20" as="alternateBounds" />
          </mxGeometry>
        </mxCell>
        <mxCell id="t48mmcYGpMNjEHupCj1k-260" value="" style="group" vertex="1" connectable="0" parent="1">
          <mxGeometry x="70" y="20" width="290" height="170" as="geometry" />
        </mxCell>
        <mxCell id="t48mmcYGpMNjEHupCj1k-190" value="" style="shape=table;startSize=0;container=1;collapsible=0;childLayout=tableLayout;" vertex="1" parent="t48mmcYGpMNjEHupCj1k-260">
          <mxGeometry y="20" width="290" height="148" as="geometry" />
        </mxCell>
        <mxCell id="t48mmcYGpMNjEHupCj1k-191" value="" style="shape=tableRow;horizontal=0;startSize=0;swimlaneHead=0;swimlaneBody=0;strokeColor=inherit;top=0;left=0;bottom=0;right=0;collapsible=0;dropTarget=0;fillColor=none;points=[[0,0.5],[1,0.5]];portConstraint=eastwest;" vertex="1" parent="t48mmcYGpMNjEHupCj1k-190">
          <mxGeometry width="290" height="21" as="geometry" />
        </mxCell>
        <mxCell id="t48mmcYGpMNjEHupCj1k-192" value="id" style="shape=partialRectangle;html=1;whiteSpace=wrap;connectable=0;strokeColor=inherit;overflow=hidden;fillColor=none;top=0;left=0;bottom=0;right=0;pointerEvents=1;" vertex="1" parent="t48mmcYGpMNjEHupCj1k-191">
          <mxGeometry width="97" height="21" as="geometry">
            <mxRectangle width="97" height="21" as="alternateBounds" />
          </mxGeometry>
        </mxCell>
        <mxCell id="t48mmcYGpMNjEHupCj1k-193" value="Int" style="shape=partialRectangle;html=1;whiteSpace=wrap;connectable=0;strokeColor=inherit;overflow=hidden;fillColor=none;top=0;left=0;bottom=0;right=0;pointerEvents=1;" vertex="1" parent="t48mmcYGpMNjEHupCj1k-191">
          <mxGeometry x="97" width="96" height="21" as="geometry">
            <mxRectangle width="96" height="21" as="alternateBounds" />
          </mxGeometry>
        </mxCell>
        <mxCell id="t48mmcYGpMNjEHupCj1k-194" value="" style="shape=partialRectangle;html=1;whiteSpace=wrap;connectable=0;strokeColor=inherit;overflow=hidden;fillColor=none;top=0;left=0;bottom=0;right=0;pointerEvents=1;" vertex="1" parent="t48mmcYGpMNjEHupCj1k-191">
          <mxGeometry x="193" width="97" height="21" as="geometry">
            <mxRectangle width="97" height="21" as="alternateBounds" />
          </mxGeometry>
        </mxCell>
        <mxCell id="t48mmcYGpMNjEHupCj1k-195" value="" style="shape=tableRow;horizontal=0;startSize=0;swimlaneHead=0;swimlaneBody=0;strokeColor=inherit;top=0;left=0;bottom=0;right=0;collapsible=0;dropTarget=0;fillColor=none;points=[[0,0.5],[1,0.5]];portConstraint=eastwest;" vertex="1" parent="t48mmcYGpMNjEHupCj1k-190">
          <mxGeometry y="21" width="290" height="20" as="geometry" />
        </mxCell>
        <mxCell id="t48mmcYGpMNjEHupCj1k-196" value="productName" style="shape=partialRectangle;html=1;whiteSpace=wrap;connectable=0;strokeColor=inherit;overflow=hidden;fillColor=none;top=0;left=0;bottom=0;right=0;pointerEvents=1;" vertex="1" parent="t48mmcYGpMNjEHupCj1k-195">
          <mxGeometry width="97" height="20" as="geometry">
            <mxRectangle width="97" height="20" as="alternateBounds" />
          </mxGeometry>
        </mxCell>
        <mxCell id="t48mmcYGpMNjEHupCj1k-197" value="String" style="shape=partialRectangle;html=1;whiteSpace=wrap;connectable=0;strokeColor=inherit;overflow=hidden;fillColor=none;top=0;left=0;bottom=0;right=0;pointerEvents=1;" vertex="1" parent="t48mmcYGpMNjEHupCj1k-195">
          <mxGeometry x="97" width="96" height="20" as="geometry">
            <mxRectangle width="96" height="20" as="alternateBounds" />
          </mxGeometry>
        </mxCell>
        <mxCell id="t48mmcYGpMNjEHupCj1k-198" value="" style="shape=partialRectangle;html=1;whiteSpace=wrap;connectable=0;strokeColor=inherit;overflow=hidden;fillColor=none;top=0;left=0;bottom=0;right=0;pointerEvents=1;" vertex="1" parent="t48mmcYGpMNjEHupCj1k-195">
          <mxGeometry x="193" width="97" height="20" as="geometry">
            <mxRectangle width="97" height="20" as="alternateBounds" />
          </mxGeometry>
        </mxCell>
        <mxCell id="t48mmcYGpMNjEHupCj1k-199" value="" style="shape=tableRow;horizontal=0;startSize=0;swimlaneHead=0;swimlaneBody=0;strokeColor=inherit;top=0;left=0;bottom=0;right=0;collapsible=0;dropTarget=0;fillColor=none;points=[[0,0.5],[1,0.5]];portConstraint=eastwest;" vertex="1" parent="t48mmcYGpMNjEHupCj1k-190">
          <mxGeometry y="41" width="290" height="21" as="geometry" />
        </mxCell>
        <mxCell id="t48mmcYGpMNjEHupCj1k-200" value="searchQuery" style="shape=partialRectangle;html=1;whiteSpace=wrap;connectable=0;strokeColor=inherit;overflow=hidden;fillColor=none;top=0;left=0;bottom=0;right=0;pointerEvents=1;" vertex="1" parent="t48mmcYGpMNjEHupCj1k-199">
          <mxGeometry width="97" height="21" as="geometry">
            <mxRectangle width="97" height="21" as="alternateBounds" />
          </mxGeometry>
        </mxCell>
        <mxCell id="t48mmcYGpMNjEHupCj1k-201" value="String" style="shape=partialRectangle;html=1;whiteSpace=wrap;connectable=0;strokeColor=inherit;overflow=hidden;fillColor=none;top=0;left=0;bottom=0;right=0;pointerEvents=1;" vertex="1" parent="t48mmcYGpMNjEHupCj1k-199">
          <mxGeometry x="97" width="96" height="21" as="geometry">
            <mxRectangle width="96" height="21" as="alternateBounds" />
          </mxGeometry>
        </mxCell>
        <mxCell id="t48mmcYGpMNjEHupCj1k-202" value="" style="shape=partialRectangle;html=1;whiteSpace=wrap;connectable=0;strokeColor=inherit;overflow=hidden;fillColor=none;top=0;left=0;bottom=0;right=0;pointerEvents=1;" vertex="1" parent="t48mmcYGpMNjEHupCj1k-199">
          <mxGeometry x="193" width="97" height="21" as="geometry">
            <mxRectangle width="97" height="21" as="alternateBounds" />
          </mxGeometry>
        </mxCell>
        <mxCell id="t48mmcYGpMNjEHupCj1k-203" value="" style="shape=tableRow;horizontal=0;startSize=0;swimlaneHead=0;swimlaneBody=0;strokeColor=inherit;top=0;left=0;bottom=0;right=0;collapsible=0;dropTarget=0;fillColor=none;points=[[0,0.5],[1,0.5]];portConstraint=eastwest;" vertex="1" parent="t48mmcYGpMNjEHupCj1k-190">
          <mxGeometry y="62" width="290" height="22" as="geometry" />
        </mxCell>
        <mxCell id="t48mmcYGpMNjEHupCj1k-204" value="region" style="shape=partialRectangle;html=1;whiteSpace=wrap;connectable=0;strokeColor=inherit;overflow=hidden;fillColor=none;top=0;left=0;bottom=0;right=0;pointerEvents=1;" vertex="1" parent="t48mmcYGpMNjEHupCj1k-203">
          <mxGeometry width="97" height="22" as="geometry">
            <mxRectangle width="97" height="22" as="alternateBounds" />
          </mxGeometry>
        </mxCell>
        <mxCell id="t48mmcYGpMNjEHupCj1k-205" value="String" style="shape=partialRectangle;html=1;whiteSpace=wrap;connectable=0;strokeColor=inherit;overflow=hidden;fillColor=none;top=0;left=0;bottom=0;right=0;pointerEvents=1;" vertex="1" parent="t48mmcYGpMNjEHupCj1k-203">
          <mxGeometry x="97" width="96" height="22" as="geometry">
            <mxRectangle width="96" height="22" as="alternateBounds" />
          </mxGeometry>
        </mxCell>
        <mxCell id="t48mmcYGpMNjEHupCj1k-206" value="" style="shape=partialRectangle;html=1;whiteSpace=wrap;connectable=0;strokeColor=inherit;overflow=hidden;fillColor=none;top=0;left=0;bottom=0;right=0;pointerEvents=1;" vertex="1" parent="t48mmcYGpMNjEHupCj1k-203">
          <mxGeometry x="193" width="97" height="22" as="geometry">
            <mxRectangle width="97" height="22" as="alternateBounds" />
          </mxGeometry>
        </mxCell>
        <mxCell id="t48mmcYGpMNjEHupCj1k-207" value="" style="shape=tableRow;horizontal=0;startSize=0;swimlaneHead=0;swimlaneBody=0;strokeColor=inherit;top=0;left=0;bottom=0;right=0;collapsible=0;dropTarget=0;fillColor=none;points=[[0,0.5],[1,0.5]];portConstraint=eastwest;" vertex="1" parent="t48mmcYGpMNjEHupCj1k-190">
          <mxGeometry y="84" width="290" height="21" as="geometry" />
        </mxCell>
        <mxCell id="t48mmcYGpMNjEHupCj1k-208" value="images" style="shape=partialRectangle;html=1;whiteSpace=wrap;connectable=0;strokeColor=inherit;overflow=hidden;fillColor=none;top=0;left=0;bottom=0;right=0;pointerEvents=1;" vertex="1" parent="t48mmcYGpMNjEHupCj1k-207">
          <mxGeometry width="97" height="21" as="geometry">
            <mxRectangle width="97" height="21" as="alternateBounds" />
          </mxGeometry>
        </mxCell>
        <mxCell id="t48mmcYGpMNjEHupCj1k-209" value="String Array" style="shape=partialRectangle;html=1;whiteSpace=wrap;connectable=0;strokeColor=inherit;overflow=hidden;fillColor=none;top=0;left=0;bottom=0;right=0;pointerEvents=1;" vertex="1" parent="t48mmcYGpMNjEHupCj1k-207">
          <mxGeometry x="97" width="96" height="21" as="geometry">
            <mxRectangle width="96" height="21" as="alternateBounds" />
          </mxGeometry>
        </mxCell>
        <mxCell id="t48mmcYGpMNjEHupCj1k-210" value="" style="shape=partialRectangle;html=1;whiteSpace=wrap;connectable=0;strokeColor=inherit;overflow=hidden;fillColor=none;top=0;left=0;bottom=0;right=0;pointerEvents=1;" vertex="1" parent="t48mmcYGpMNjEHupCj1k-207">
          <mxGeometry x="193" width="97" height="21" as="geometry">
            <mxRectangle width="97" height="21" as="alternateBounds" />
          </mxGeometry>
        </mxCell>
        <mxCell id="t48mmcYGpMNjEHupCj1k-211" value="" style="shape=tableRow;horizontal=0;startSize=0;swimlaneHead=0;swimlaneBody=0;strokeColor=inherit;top=0;left=0;bottom=0;right=0;collapsible=0;dropTarget=0;fillColor=none;points=[[0,0.5],[1,0.5]];portConstraint=eastwest;" vertex="1" parent="t48mmcYGpMNjEHupCj1k-190">
          <mxGeometry y="105" width="290" height="22" as="geometry" />
        </mxCell>
        <mxCell id="t48mmcYGpMNjEHupCj1k-212" value="surgeries" style="shape=partialRectangle;html=1;whiteSpace=wrap;connectable=0;strokeColor=inherit;overflow=hidden;fillColor=none;top=0;left=0;bottom=0;right=0;pointerEvents=1;" vertex="1" parent="t48mmcYGpMNjEHupCj1k-211">
          <mxGeometry width="97" height="22" as="geometry">
            <mxRectangle width="97" height="22" as="alternateBounds" />
          </mxGeometry>
        </mxCell>
        <mxCell id="t48mmcYGpMNjEHupCj1k-213" value="Int Array" style="shape=partialRectangle;html=1;whiteSpace=wrap;connectable=0;strokeColor=inherit;overflow=hidden;fillColor=none;top=0;left=0;bottom=0;right=0;pointerEvents=1;" vertex="1" parent="t48mmcYGpMNjEHupCj1k-211">
          <mxGeometry x="97" width="96" height="22" as="geometry">
            <mxRectangle width="96" height="22" as="alternateBounds" />
          </mxGeometry>
        </mxCell>
        <mxCell id="t48mmcYGpMNjEHupCj1k-214" value="" style="shape=partialRectangle;html=1;whiteSpace=wrap;connectable=0;strokeColor=inherit;overflow=hidden;fillColor=none;top=0;left=0;bottom=0;right=0;pointerEvents=1;" vertex="1" parent="t48mmcYGpMNjEHupCj1k-211">
          <mxGeometry x="193" width="97" height="22" as="geometry">
            <mxRectangle width="97" height="22" as="alternateBounds" />
          </mxGeometry>
        </mxCell>
        <mxCell id="t48mmcYGpMNjEHupCj1k-215" value="" style="shape=tableRow;horizontal=0;startSize=0;swimlaneHead=0;swimlaneBody=0;strokeColor=inherit;top=0;left=0;bottom=0;right=0;collapsible=0;dropTarget=0;fillColor=none;points=[[0,0.5],[1,0.5]];portConstraint=eastwest;" vertex="1" parent="t48mmcYGpMNjEHupCj1k-190">
          <mxGeometry y="127" width="290" height="21" as="geometry" />
        </mxCell>
        <mxCell id="t48mmcYGpMNjEHupCj1k-216" value="wish" style="shape=partialRectangle;html=1;whiteSpace=wrap;connectable=0;strokeColor=inherit;overflow=hidden;fillColor=none;top=0;left=0;bottom=0;right=0;pointerEvents=1;" vertex="1" parent="t48mmcYGpMNjEHupCj1k-215">
          <mxGeometry width="97" height="21" as="geometry">
            <mxRectangle width="97" height="21" as="alternateBounds" />
          </mxGeometry>
        </mxCell>
        <mxCell id="t48mmcYGpMNjEHupCj1k-217" value="Boolean" style="shape=partialRectangle;html=1;whiteSpace=wrap;connectable=0;strokeColor=inherit;overflow=hidden;fillColor=none;top=0;left=0;bottom=0;right=0;pointerEvents=1;" vertex="1" parent="t48mmcYGpMNjEHupCj1k-215">
          <mxGeometry x="97" width="96" height="21" as="geometry">
            <mxRectangle width="96" height="21" as="alternateBounds" />
          </mxGeometry>
        </mxCell>
        <mxCell id="t48mmcYGpMNjEHupCj1k-218" value="" style="shape=partialRectangle;html=1;whiteSpace=wrap;connectable=0;strokeColor=inherit;overflow=hidden;fillColor=none;top=0;left=0;bottom=0;right=0;pointerEvents=1;" vertex="1" parent="t48mmcYGpMNjEHupCj1k-215">
          <mxGeometry x="193" width="97" height="21" as="geometry">
            <mxRectangle width="97" height="21" as="alternateBounds" />
          </mxGeometry>
        </mxCell>
        <mxCell id="t48mmcYGpMNjEHupCj1k-222" value="hospitals" style="whiteSpace=wrap;html=1;" vertex="1" parent="t48mmcYGpMNjEHupCj1k-260">
          <mxGeometry x="85" width="120" height="20" as="geometry" />
        </mxCell>
        <mxCell id="t48mmcYGpMNjEHupCj1k-262" style="edgeStyle=orthogonalEdgeStyle;rounded=0;orthogonalLoop=1;jettySize=auto;html=1;exitX=1;exitY=0.5;exitDx=0;exitDy=0;entryX=0;entryY=0.5;entryDx=0;entryDy=0;fillColor=#d5e8d4;strokeColor=#82b366;" edge="1" parent="1" source="t48mmcYGpMNjEHupCj1k-211" target="t48mmcYGpMNjEHupCj1k-83">
          <mxGeometry relative="1" as="geometry" />
        </mxCell>
        <mxCell id="t48mmcYGpMNjEHupCj1k-263" style="edgeStyle=orthogonalEdgeStyle;rounded=0;orthogonalLoop=1;jettySize=auto;html=1;exitX=1;exitY=0.5;exitDx=0;exitDy=0;entryX=0;entryY=0.5;entryDx=0;entryDy=0;fillColor=#f8cecc;strokeColor=#b85450;" edge="1" parent="1" source="t48mmcYGpMNjEHupCj1k-191" target="t48mmcYGpMNjEHupCj1k-29">
          <mxGeometry relative="1" as="geometry" />
        </mxCell>
        <mxCell id="t48mmcYGpMNjEHupCj1k-264" style="edgeStyle=orthogonalEdgeStyle;rounded=0;orthogonalLoop=1;jettySize=auto;html=1;exitX=0;exitY=0.5;exitDx=0;exitDy=0;entryX=0;entryY=0.5;entryDx=0;entryDy=0;fillColor=#e1d5e7;strokeColor=#9673a6;" edge="1" parent="1" source="t48mmcYGpMNjEHupCj1k-83" target="t48mmcYGpMNjEHupCj1k-26">
          <mxGeometry relative="1" as="geometry" />
        </mxCell>
        <mxCell id="t48mmcYGpMNjEHupCj1k-265" style="edgeStyle=orthogonalEdgeStyle;rounded=0;orthogonalLoop=1;jettySize=auto;html=1;exitX=0;exitY=0.5;exitDx=0;exitDy=0;entryX=0;entryY=0.5;entryDx=0;entryDy=0;" edge="1" parent="1" source="t48mmcYGpMNjEHupCj1k-191" target="t48mmcYGpMNjEHupCj1k-100">
          <mxGeometry relative="1" as="geometry" />
        </mxCell>
        <mxCell id="t48mmcYGpMNjEHupCj1k-266" style="edgeStyle=orthogonalEdgeStyle;rounded=0;orthogonalLoop=1;jettySize=auto;html=1;exitX=1;exitY=0.5;exitDx=0;exitDy=0;entryX=1;entryY=0.5;entryDx=0;entryDy=0;" edge="1" parent="1" source="t48mmcYGpMNjEHupCj1k-83" target="t48mmcYGpMNjEHupCj1k-248">
          <mxGeometry relative="1" as="geometry" />
        </mxCell>
        <mxCell id="t48mmcYGpMNjEHupCj1k-267" style="edgeStyle=orthogonalEdgeStyle;rounded=0;orthogonalLoop=1;jettySize=auto;html=1;exitX=1;exitY=0.5;exitDx=0;exitDy=0;entryX=1;entryY=0.5;entryDx=0;entryDy=0;fillColor=#1ba1e2;strokeColor=#006EAF;" edge="1" parent="1" source="t48mmcYGpMNjEHupCj1k-29" target="t48mmcYGpMNjEHupCj1k-236">
          <mxGeometry relative="1" as="geometry" />
        </mxCell>
        <mxCell id="t48mmcYGpMNjEHupCj1k-268" style="edgeStyle=orthogonalEdgeStyle;rounded=0;orthogonalLoop=1;jettySize=auto;html=1;exitX=1;exitY=0.5;exitDx=0;exitDy=0;entryX=1.008;entryY=-0.208;entryDx=0;entryDy=0;entryPerimeter=0;fillColor=#008a00;strokeColor=#005700;" edge="1" parent="1" source="t48mmcYGpMNjEHupCj1k-26" target="t48mmcYGpMNjEHupCj1k-228">
          <mxGeometry relative="1" as="geometry">
            <Array as="points">
              <mxPoint x="750" y="242" />
              <mxPoint x="750" y="449" />
            </Array>
          </mxGeometry>
        </mxCell>
      </root>
    </mxGraphModel>
  </diagram>
</mxfile>
